<svg data-v-423bf9ae="" xmlns="http://www.w3.org/2000/svg" viewBox="0 0 510.2426566433718 60" class="font"><!----><!----><!----><g data-v-423bf9ae="" id="e605fd26-c105-4fa3-b8f1-120827c3e134" fill="white" transform="matrix(5.424954414367676,0,0,5.424954414367676,-1.6817256212234497,-16.708860397338867)"><path d="M12.42 3.78L10.18 12.53L7.53 3.78L6.50 3.78L3.75 12.45L1.46 3.78L0.31 3.78L3.21 14L4.26 14L7.03 5.26L9.65 14L10.72 14L13.50 3.78ZM15.67 5.10C16.10 5.10 16.46 4.73 16.46 4.27C16.46 3.85 16.10 3.50 15.67 3.50C15.22 3.50 14.87 3.85 14.87 4.27C14.87 4.73 15.22 5.10 15.67 5.10ZM16.16 6.72L15.11 6.72L15.11 14L16.16 14ZM22.12 6.58C21.35 6.58 20.48 6.97 19.54 7.76L19.36 6.72L18.62 6.72L18.62 14L19.66 14L19.66 8.75C20.57 7.98 21.31 7.59 21.92 7.59C22.25 7.59 22.53 7.64 22.76 7.73L22.89 6.71C22.68 6.64 22.43 6.58 22.12 6.58ZM28.04 6.58C26.85 6.58 25.93 6.99 25.30 7.78L25.30 3.08L24.30 3.08L24.30 14L25.02 14L25.23 12.87C25.86 13.69 26.75 14.14 28.03 14.14C30.02 14.14 31.64 12.46 31.64 10.33C31.64 8.23 30.00 6.58 28.04 6.58ZM27.96 13.23C26.68 13.23 25.84 12.61 25.34 11.61L25.34 9.10C25.82 8.13 26.67 7.49 27.96 7.49C29.34 7.49 30.58 8.72 30.58 10.33C30.58 11.96 29.36 13.23 27.96 13.23ZM36.62 6.58C34.58 6.58 33.00 8.19 33.00 10.33C33.00 12.50 34.54 14.14 36.64 14.14C38.30 14.14 39.56 13.06 39.80 11.76L38.81 11.76C38.60 12.66 37.74 13.23 36.64 13.23C35.20 13.23 34.13 12.15 34.02 10.63L39.84 10.63L39.94 10.54C40.12 8.41 38.64 6.58 36.62 6.58ZM34.06 9.74C34.31 8.39 35.38 7.48 36.61 7.48C37.90 7.48 38.79 8.48 38.93 9.76ZM42.92 3.08L41.87 3.08L41.87 14L42.92 14ZM45.09 8.54C45.09 11.48 50.05 10.02 50.06 12.05C50.08 12.88 49.27 13.29 48.09 13.29C46.87 13.29 45.89 12.75 45.70 11.69L44.70 11.69C44.93 13.34 46.41 14.14 48.06 14.14C49.78 14.14 51.09 13.40 51.09 12.05C51.09 9.14 46.12 10.57 46.12 8.54C46.12 7.94 46.72 7.43 47.99 7.43C49.39 7.43 49.88 8.13 49.98 8.99L50.95 8.99C50.86 7.70 49.95 6.58 48.02 6.58C46.09 6.58 45.09 7.43 45.09 8.54ZM52.11 7.62L53.24 7.62L53.24 12.00C53.24 13.57 54.11 14.14 55.23 14.14C55.97 14.14 56.67 13.99 57.25 13.73L57.13 12.84C56.62 13.06 56.03 13.22 55.38 13.22C54.70 13.22 54.28 12.85 54.28 11.98L54.28 7.62L57.20 7.62L57.20 6.72L54.28 6.72L54.28 4.65L53.27 4.91L53.27 6.72L52.11 6.72ZM60.66 5.08C61.04 5.08 61.38 4.76 61.38 4.35C61.38 3.98 61.04 3.67 60.66 3.67C60.27 3.67 59.96 3.98 59.96 4.35C59.96 4.76 60.27 5.08 60.66 5.08ZM63.15 5.08C63.55 5.08 63.87 4.76 63.87 4.35C63.87 3.98 63.55 3.67 63.15 3.67C62.76 3.67 62.44 3.98 62.44 4.35C62.44 4.76 62.76 5.08 63.15 5.08ZM64.09 6.72L64.09 12.18C63.15 12.82 62.20 13.22 61.38 13.22C60.28 13.22 59.68 12.60 59.68 11.42L59.68 6.72L58.63 6.72L58.63 11.47C58.63 13.22 59.57 14.14 61.11 14.14C62.19 14.14 63.14 13.78 64.22 13.06L64.40 14L65.14 14L65.14 6.72ZM71.06 6.58C70.29 6.58 69.43 6.97 68.49 7.76L68.31 6.72L67.56 6.72L67.56 14L68.60 14L68.60 8.75C69.51 7.98 70.25 7.59 70.87 7.59C71.19 7.59 71.47 7.64 71.71 7.73L71.83 6.71C71.62 6.64 71.37 6.58 71.06 6.58ZM83.10 6.58C81.91 6.58 80.82 6.99 79.67 7.85C79.30 7.01 78.53 6.58 77.48 6.58C76.33 6.58 75.28 6.96 74.17 7.76L73.98 6.72L73.25 6.72L73.25 14L74.28 14L74.28 8.62C75.26 7.97 76.31 7.50 77.21 7.50C78.27 7.50 78.90 8.12 78.90 9.30L78.90 14L79.94 14L79.94 9.25C79.94 9.04 79.93 8.83 79.90 8.65C80.88 7.98 81.91 7.50 82.84 7.50C83.92 7.50 84.53 8.13 84.53 9.30L84.53 14L85.57 14L85.57 9.25C85.57 7.50 84.64 6.58 83.10 6.58ZM91.03 6.58C88.98 6.58 87.40 8.19 87.40 10.33C87.40 12.50 88.94 14.14 91.04 14.14C92.71 14.14 93.97 13.06 94.21 11.76L93.21 11.76C93.00 12.66 92.15 13.23 91.04 13.23C89.60 13.23 88.54 12.15 88.42 10.63L94.25 10.63L94.35 10.54C94.53 8.41 93.04 6.58 91.03 6.58ZM88.47 9.74C88.72 8.39 89.78 7.48 91.01 7.48C92.30 7.48 93.20 8.48 93.34 9.76Z"></path></g><!----><!----></svg>