<?xml version="1.0" encoding="UTF-8" standalone="no"?>
<svg
   xmlns:dc="http://purl.org/dc/elements/1.1/"
   xmlns:cc="http://creativecommons.org/ns#"
   xmlns:rdf="http://www.w3.org/1999/02/22-rdf-syntax-ns#"
   xmlns:svg="http://www.w3.org/2000/svg"
   xmlns="http://www.w3.org/2000/svg"
   xmlns:sodipodi="http://sodipodi.sourceforge.net/DTD/sodipodi-0.dtd"
   xmlns:inkscape="http://www.inkscape.org/namespaces/inkscape"
   version="1.1"
   width="181.21841"
   height="44.405273"
   id="svg62"
   sodipodi:docname="dreckspatz.svg"
   inkscape:export-filename="/Users/hazel/WebstormProjects/butterflystar.github.io/logo/dreckspatz.svg.png"
   inkscape:export-xdpi="96"
   inkscape:export-ydpi="96"
   inkscape:version="1.0.1 (c497b03c, 2020-09-10)">
  <metadata
     id="metadata68">
    <rdf:RDF>
      <cc:Work
         rdf:about="">
        <dc:format>image/svg+xml</dc:format>
        <dc:type
           rdf:resource="http://purl.org/dc/dcmitype/StillImage" />
        <dc:title></dc:title>
      </cc:Work>
    </rdf:RDF>
  </metadata>
  <defs
     id="defs66" />
  <sodipodi:namedview
     pagecolor="#ffffff"
     bordercolor="#666666"
     borderopacity="1"
     objecttolerance="10"
     gridtolerance="10"
     guidetolerance="10"
     inkscape:pageopacity="0"
     inkscape:pageshadow="2"
     inkscape:window-width="1792"
     inkscape:window-height="982"
     id="namedview64"
     showgrid="false"
     inkscape:zoom="1.8445449"
     inkscape:cx="-23.745372"
     inkscape:cy="23.11284"
     inkscape:window-x="0"
     inkscape:window-y="25"
     inkscape:window-maximized="1"
     inkscape:current-layer="svg62" />
  <path
     fill="#"
     d="m -1.875e-7,2.7626954 q 0,-1.572266 0.5390629975,-2.11132802 0.53906199,-0.539063 1.50488199,-0.539063 0.269532,0 0.572754,0.04492 0.303223,0.04492 0.572754,0.134766 1.504883,-0.291992005 2.852539,-0.291992005 2.178711,0 3.953125,0.763671005 2.8525392,1.21289102 4.7167972,3.59375002 1.864258,2.38086 2.740235,5.592774 0.875976,3.2119136 0.875976,6.5810536 0,1.88672 -0.258301,3.93066 -0.2583,2.04395 -0.999511,3.7959 -0.651368,1.57227 -1.796875,3.29053 -1.145508,1.71826 -2.594239,3.25684 -1.44873,1.53857 -3.1220702,2.69531 -1.67334,1.15674 -3.380371,1.56103 v 0.17969 q 0,0.44922 -0.23584,0.72998 -0.23584,0.28076 -0.572754,0.42676 -0.336914,0.146 -0.774902,0.19092 -0.437988,0.0449 -0.819824,0.0449 -0.22461,0 -0.640137,-0.0449 -0.415527,-0.0449 -0.808594,-0.16846 -0.393066,-0.12353 -0.662597,-0.32568 -0.269532,-0.20215 -0.269532,-0.56153 0,-4.08789 -0.213379,-8.18701 -0.21337899,-4.09912 -0.48290999,-8.19824 -0.269531,-4.09912 -0.48291,-8.187012 Q -1.8750001e-7,6.8730444 -1.8750001e-7,2.7626934 Z M 4.2451168,1.6171874 q 0.22461,2.15625 0.291993,4.30127 0.06738,2.145019 0.202148,4.3012686 0.359375,5.570313 0.831055,11.084473 0.471679,5.51416 0.561523,11.08447 2.15625,-1.41504 3.694824,-3.23437 1.5385752,-1.81934 2.5268562,-3.95313 0.988281,-2.13379 1.44873,-4.48095 0.460449,-2.34717 0.460449,-4.84034 0,-1.79687 -0.314453,-3.95312 -0.314453,-2.1562516 -1.078125,-4.1552746 -0.763672,-1.999023 -2.055175,-3.616211 -1.2915042,-1.617187 -3.2231452,-2.313477 -0.404297,-0.134765 -0.977051,-0.224609 -0.572754,-0.08984 -1.830566,-0.08984 -0.134766,0 -0.269531,0.04492 -0.134766,0.04492 -0.269532,0.04492 z M 22.902744,19.338869 q 0,-0.9209 0.325684,-1.54981 0.325684,-0.6289 1.381348,-0.6289 0.404296,0 1.010742,0.12353 0.606445,0.12354 0.696289,0.61768 0.224609,1.32519 0.24707,2.875 0.02246,1.5498 0.157227,2.91992 0.516601,-1.01074 1.325195,-2.17871 0.808594,-1.16797 1.841797,-2.15625 1.033203,-0.98828 2.246094,-1.63965 1.21289,-0.65137 2.470703,-0.65137 0.08984,0 0.336914,0.0674 0.24707,0.0674 0.460449,0.19091 0.213379,0.12354 0.258301,0.28077 0.04492,0.15722 -0.24707,0.29199 -0.08984,0.26953 -0.381836,0.32568 -0.291993,0.0561 -0.516602,0.0561 -0.134766,0 -0.426758,-0.1123 -1.662109,0.87598 -2.830078,2.38086 -1.167969,1.50488 -1.90918,3.33545 -0.741211,1.83056 -1.078125,3.86328 -0.336914,2.03271 -0.336914,3.96435 0,0.96582 -0.437988,1.16797 -0.437988,0.20215 -1.403809,0.20215 -0.516601,0 -1.089355,-0.1123 -0.572754,-0.11231 -0.797363,-0.71875 -0.404297,-1.28028 -0.662598,-2.94239 -0.258301,-1.66211 -0.393066,-3.42529 -0.134766,-1.76318 -0.190918,-3.47021 -0.05615,-1.70703 -0.05615,-3.07715 z m 15.962315,7.20996 q 0,-1.57227 0.348144,-3.70606 0.348145,-2.13378 1.1792,-4.04296 0.831054,-1.90918 2.189941,-3.24561 1.358887,-1.33643 3.425293,-1.33643 1.931641,0 2.897461,1.11182 0.96582,1.11182 0.96582,2.99854 0,1.23535 -0.460449,2.70654 -0.460449,1.47119 -1.313965,2.78515 -0.853516,1.31397 -2.021484,2.18995 -1.167969,0.87597 -2.605469,0.87597 l -0.583984,-0.0449 q 0,0.60645 0.179687,1.62842 0.179688,1.02197 0.527832,2.03271 0.348145,1.01075 0.898438,1.77442 0.550293,0.76367 1.336425,0.76367 1.145508,0 2.201172,-0.9209 1.055664,-0.9209 1.999024,-2.04394 0.943359,-1.12305 1.751953,-2.04395 0.808594,-0.9209 1.482422,-0.9209 0.359375,0 0.741211,0.11231 0.381836,0.1123 0.426757,0.6289 0,0.31446 -0.168457,0.5166 -0.168457,0.20215 -0.303222,0.44922 -0.696289,1.19043 -1.516113,2.26856 -0.819825,1.07812 -1.853028,1.9541 -1.033203,0.87598 -2.257324,1.38135 -1.224121,0.50537 -2.706543,0.50537 -1.931641,0 -3.211914,-0.68506 -1.280274,-0.68506 -2.066406,-1.8418 -0.786133,-1.15674 -1.134278,-2.67285 -0.348144,-1.51611 -0.348144,-3.17822 z m 4.020508,-1.70703 0.628906,0.56152 q 0.449219,0.4043 0.898437,0.17969 0.449219,-0.22461 0.808594,-0.81983 0.359375,-0.59521 0.662598,-1.47119 0.303222,-0.87597 0.539062,-1.79687 0.23584,-0.9209 0.348145,-1.79688 0.112304,-0.87597 0.112304,-1.45996 v -0.76367 q 0,0 -0.06738,-0.80859 -0.06738,-0.8086 -0.23584,-0.64014 -0.168457,0.16846 -0.527832,-0.32568 -0.112305,-0.0225 -0.202149,-0.0225 -0.763672,0 -1.302734,0.96582 -0.583984,1.07812 -0.943359,2.61669 -0.359375,1.53858 -0.516602,3.15577 -0.157227,1.61718 -0.202148,2.42578 z m 14.749423,0.33691 q 0,-1.61719 0.415528,-3.2456 0.415527,-1.62842 1.291504,-2.91993 0.875976,-1.2915 2.234863,-2.10009 1.358887,-0.8086 3.200684,-0.8086 0.786132,0 1.729492,0.19092 0.943359,0.19092 1.740722,0.60645 0.797364,0.41552 1.347657,1.07812 0.550293,0.6626 0.550293,1.62842 0,0.60644 -0.314454,0.80859 -0.314453,0.20215 -0.831054,0.20215 l -0.157227,-0.22461 q 0,0 -0.437988,-0.57275 -0.437988,-0.57276 -0.595215,-0.74121 -0.157226,-0.16846 -0.606445,-0.6626 -0.920899,-0.9209 -1.729492,-0.98828 H 65.29417 q -0.673828,0 -1.257812,0.4043 -0.651368,0.49414 -1.156739,1.39257 -0.505371,0.89844 -0.842285,1.90918 -0.336914,1.01075 -0.527832,2.04395 -0.190918,1.0332 -0.190918,1.70703 0,0.9209 0.213379,2.1001 0.213379,1.1792 0.71875,2.23486 0.505371,1.05566 1.280274,1.77441 0.774902,0.71875 1.987792,0.71875 1.100586,0 1.999024,-0.53906 0.898437,-0.53906 1.718262,-1.20166 0.819824,-0.6626 1.605957,-1.19043 0.786132,-0.52783 1.617187,-0.52783 0.359375,0 0.729981,0.0898 0.370605,0.0898 0.370605,0.47168 v 0.13477 q -0.404297,1.05566 -1.370117,1.86426 -0.96582,0.80859 -2.167481,1.40381 -1.20166,0.59521 -2.493164,0.8872 -1.291504,0.29199 -2.302246,0.29199 -1.886718,0 -3.312988,-0.61767 -1.42627,-0.61768 -2.369629,-1.6958 -0.943359,-1.07813 -1.426269,-2.59424 -0.482911,-1.51611 -0.482911,-3.31299 z m 19.600987,9.56836 0.471679,-0.56152 q -0.08984,-3.77344 -0.202148,-7.52442 -0.112305,-3.75097 -0.112305,-7.45703 0,-4.60449 0.550293,-8.90576 0.550293,-4.3012686 1.089356,-8.8159176 0.04492,-0.269531 0.258301,-0.437988 0.213378,-0.16845703 0.527832,-0.28076203 0.314453,-0.112304 0.640136,-0.157226 0.325684,-0.04492 0.595215,-0.04492 0.359375,0 0.898438,0.134766 0.539062,0.134765 1.078125,0.78613203 0,0.22461 0.03369,0.393067 0.03369,0.168457 0.03369,0.393066 0,1.707032 -0.460449,3.661133 -0.460449,1.954102 -0.617676,3.750977 -0.179687,2.2011746 -0.24707,4.3574246 -0.06738,2.15625 -0.06738,4.37988 l 0.04492,1.97656 q 0.449219,-0.56152 1.280274,-1.4375 0.831054,-0.87597 1.796874,-1.6958 0.96582,-0.81982 1.93164,-1.40381 0.96582,-0.58398 1.75195,-0.58398 1.19043,0 1.65088,0.67383 0.46045,0.67382 0.46045,1.77441 0,1.01074 -0.43799,2.11133 -0.43798,1.10058 -1.1455,2.14502 -0.70752,1.04443 -1.60596,1.87549 -0.89844,0.83105 -1.77441,1.23535 1.19043,1.48242 2.43701,2.83008 1.24658,1.34765 2.729,2.53808 v 0.5166 q -0.0449,0.22461 -0.28076,0.33692 -0.23584,0.1123 -0.5166,0.17969 -0.28076,0.0674 -0.5503,0.10107 -0.26953,0.0337 -0.44921,0.0337 -1.10059,0 -2.12256,-0.65137 -1.02198,-0.65136 -1.90918,-1.59472 -0.88721,-0.94336 -1.673342,-1.99903 -0.786133,-1.05566 -1.4375,-1.84179 0.134765,2.583 0.303222,5.15478 0.168457,2.57178 0.168457,5.15479 0,0.31445 -0.280761,0.52783 -0.280762,0.21338 -0.651367,0.32568 -0.370606,0.11231 -0.752442,0.15723 -0.381836,0.0449 -0.628906,0.0449 -1.325195,0 -1.875488,-0.48291 -0.550293,-0.48291 -0.932129,-1.67334 z m 4.604492,-10.5791 q 0.561523,0 1.336426,-0.48291 0.774898,-0.48291 1.605958,-1.20166 0.83105,-0.71875 1.5498,-1.51611 0.71875,-0.79737 1.15674,-1.51612 0.43799,-0.71875 0.43799,-1.15674 0,-0.43798 -0.60645,-0.39306 -0.2246,0 -0.92089,0.65137 -0.69629,0.65136 -1.54981,1.59472 -0.85351,0.94336 -1.70703,2.04395 -0.853515,1.10058 -1.302734,1.97656 z m 13.581454,-4.33496 q 0,-0.9209 0.53906,-1.5835 0.53907,-0.6626 1.31397,-1.07812 0.7749,-0.41553 1.6958,-0.61768 0.9209,-0.20215 1.707027,-0.20215 0.60645,0 1.61719,0.17969 1.01074,0.17969 1.97656,0.53906 0.96582,0.35938 1.67334,0.94336 0.70752,0.58399 0.70752,1.37012 0,0.35937 -0.26953,0.64014 -0.26953,0.28076 -0.56152,0.28076 -0.60645,0 -1.10059,-0.39307 -0.49414,-0.39306 -1.02197,-0.83105 -0.52784,-0.43799 -1.15674,-0.83106 -0.62891,-0.39306 -1.41504,-0.39306 -0.78613,0 -1.426267,0.50537 -0.64014,0.50537 -0.64014,1.33642 0,1.37012 0.965817,2.68408 0.96582,1.31397 2.12256,2.7627 1.15674,1.44873 2.12256,3.04346 0.96582,1.59472 0.96582,3.52636 0,0.83106 -0.34814,1.40381 -0.34815,0.57276 -0.9209,0.93213 -0.57276,0.35938 -1.29151,0.55029 -0.71875,0.19092 -1.39257,0.19092 -0.74122,0 -1.729497,-0.34814 -0.98828,-0.34815 -1.86425,-0.9209 -0.87598,-0.57275 -1.4712,-1.33643 -0.59521,-0.76367 -0.59521,-1.59472 0,-0.4043 0.57275,-0.5166 0.57276,-0.11231 0.84229,-0.11231 0.13476,0 0.41553,0.0898 0.28076,0.0898 0.55029,0.20214 0.26953,0.11231 0.48291,0.24707 0.21338,0.13477 0.16846,0.292 0.22461,0.26953 0.68505,0.79736 0.46045,0.52783 0.920897,0.85351 0.46045,0.32569 0.8086,0.23584 0.34814,-0.0898 0.34814,-1.01074 0,-1.75195 -0.94336,-3.22314 -0.943357,-1.47119 -2.055167,-2.875 -1.11182,-1.40381 -2.05518,-2.78516 -0.94336,-1.38135 -0.94336,-2.95361 z m 15.827547,-2.33594 q 0,-1.05566 0.41553,-1.56103 0.41552,-0.50538 1.51611,-0.50538 0.65137,0 1.22412,0.26954 0.57276,0.26953 0.57276,1.1455 0.0898,1.28028 0.0898,2.68409 0,1.4038 0.24707,2.66162 0.56152,-0.9209 1.26904,-1.8418 0.70752,-0.9209 1.56104,-1.63965 0.85351,-0.71875 1.86426,-1.15674 1.01074,-0.43798 2.20117,-0.43798 1.61718,0 2.74023,0.67382 1.12305,0.67383 1.85303,1.75196 0.72998,1.07812 1.05566,2.43701 0.32569,1.35888 0.32569,2.729 0,2.11133 -0.64014,3.44776 -0.64014,1.33642 -1.6958,2.10009 -1.05566,0.76368 -2.39209,1.03321 -1.33643,0.26953 -2.68408,0.26953 -1.19043,0 -2.22364,-0.46045 -1.0332,-0.46045 -1.4375,-1.74072 0,-0.35938 0.52784,-0.44922 0.52783,-0.0898 0.75244,-0.0898 0.74121,0 1.10058,0.4043 0.26954,0.31445 0.59522,0.64014 0.32568,0.32568 0.68506,0.32568 0.69629,0 1.45996,-0.39307 0.76367,-0.39306 1.40381,-1.0332 0.64013,-0.64014 1.07812,-1.51611 0.43799,-0.87598 0.43799,-1.79688 0,-0.78613 -0.13477,-1.9541 -0.13476,-1.16797 -0.46044,-2.24609 -0.32569,-1.07813 -0.89844,-1.86426 -0.57276,-0.78613 -1.44873,-0.78613 -1.3252,0 -2.39209,1.21289 -1.0669,1.21289 -1.77442,2.91992 -0.70752,1.70703 -1.10058,3.54883 -0.39307,1.84179 -0.39307,3.07715 0,1.23535 0.15723,3.12207 0.15722,1.88672 0.32568,3.91943 0.16846,2.03271 0.32568,3.91943 0.15723,1.88672 0.15723,3.12207 0,0.31446 -0.2583,0.50537 -0.2583,0.19092 -0.61768,0.30323 -0.35937,0.1123 -0.72998,0.13476 -0.3706,0.0225 -0.55029,0.0225 -0.60644,0 -1.26904,-0.13476 -0.6626,-0.13477 -0.90967,-0.83106 -0.31445,-1.10058 -0.58398,-3.1333 -0.26954,-2.03271 -0.48291,-4.49218 -0.21338,-2.45948 -0.37061,-5.16602 -0.15723,-2.70654 -0.26953,-5.22217 -0.11231,-2.51562 -0.16846,-4.60449 -0.0562,-2.08887 -0.0562,-3.32422 z m 21.53263,8.13086 q 0,-1.52734 0.41552,-2.94238 0.41553,-1.41504 1.24659,-2.52686 0.83105,-1.11181 2.07763,-1.77441 1.24658,-0.6626 2.88623,-0.6626 1.01075,0 2.23487,0.30322 1.22412,0.30323 2.30224,0.89844 1.07813,0.59522 1.79688,1.51611 0.71875,0.9209 0.71875,2.11133 0,0.56153 -0.19092,0.85352 -0.19092,0.29199 -0.7749,0.29199 l -0.24707,-0.0449 q 0.65136,1.75195 1.12304,3.59375 0.47168,1.84179 0.9209,3.68359 0.17969,0.35938 0.26953,0.64014 0.0898,0.28076 0.0898,0.55029 0,0.35938 -0.20215,0.59522 -0.20215,0.23584 -0.52783,0.34814 -0.32569,0.11231 -0.67383,0.15723 -0.34815,0.0449 -0.61768,0.0449 -0.96582,0 -1.44873,-0.33691 -0.48291,-0.33692 -0.69629,-0.9209 -0.21338,-0.58399 -0.2583,-1.31397 -0.0449,-0.72998 -0.17968,-1.47119 -0.26954,0.87598 -0.70752,1.70703 -0.43799,0.83106 -1.03321,1.49365 -0.59521,0.6626 -1.40381,1.05567 -0.80859,0.39306 -1.81933,0.39306 -1.48242,0 -2.49317,-0.85351 -1.01074,-0.85352 -1.62841,-2.1001 -0.61768,-1.24658 -0.89844,-2.66162 -0.28076,-1.41504 -0.28076,-2.62793 z m 3.18945,-0.31445 q 0,0.83105 0.1123,1.75195 0.11231,0.9209 0.37061,1.81934 0.2583,0.89843 0.6626,1.6958 0.40429,0.79736 1.01074,1.40381 1.10059,-1.19043 1.62842,-2.89747 0.52783,-1.70703 0.94336,-3.29052 0.41552,-1.5835 0.94336,-2.71778 0.52783,-1.13427 1.62841,-1.13427 0.69629,0 1.16797,0.24707 -0.22461,-0.56153 -0.74121,-1.08936 -0.5166,-0.52783 -1.15674,-0.96582 -0.64013,-0.43799 -1.32519,-0.71875 -0.68506,-0.28076 -1.29151,-0.28076 -0.17968,0 -0.41552,0.0562 -0.23584,0.0562 -0.37061,0.0112 -0.9209,0.26953 -1.51611,0.93213 -0.59522,0.6626 -0.96582,1.56104 -0.37061,0.89843 -0.52783,1.84179 -0.15723,0.94336 -0.15723,1.77442 z m 15.35587,-13.94824 q 0,-0.31446 0.67383,-0.539068 0.67383,-0.224609 1.52734,-0.370605 0.85352,-0.145996 1.65088,-0.213379 0.79736,-0.06738 1.08936,-0.112305 0,-0.6064446 0.0449,-1.2241206 0.0449,-0.617675 0.24707,-1.100586 0.20215,-0.48291 0.64013,-0.774902 0.43799,-0.291992 1.22413,-0.291992 0.65136,0 0.98828,0.157226 0.33691,0.157227 0.71875,0.651368 0.0898,0.269531 0.0898,0.516601 v 0.752442 q 0,0 -0.0449,0.774902 0.83105,-0.08984 1.65088,-0.213379 0.81982,-0.123535 1.65088,-0.123535 0.60644,0 0.83105,0.02246 0.22461,0.02246 0.44922,0.539062 0.17969,0.5166016 -0.43799,0.7861326 -0.61767,0.269531 -1.48242,0.404297 -0.86475,0.13477 -1.71826,0.20215 -0.85352,0.0674 -1.03321,0.0674 -0.26953,3.86328 -0.55029,7.65918 -0.28076,3.7959 -0.28076,7.7041 0,1.75196 0.1123,3.61621 0.11231,1.86426 0.62891,3.52637 0.13477,0.5166 0.44922,0.96582 0.31445,0.44922 0.31445,0.96582 0,0.31445 -0.24707,0.49414 -0.24707,0.17969 -0.59521,0.30322 -0.34815,0.12354 -0.69629,0.146 -0.34815,0.0225 -0.57276,0.0225 -1.41503,0 -2.15625,-1.05566 -0.74121,-1.05567 -1.06689,-2.52686 -0.32568,-1.47119 -0.34814,-3.02099 -0.0225,-1.54981 -0.0225,-2.51563 0,-1.97656 0.0786,-4.04297 0.0786,-2.0664 0.19092,-4.08789 0.1123,-2.02148 0.31445,-3.95312 0.20215,-1.93164 0.47168,-3.59375 -0.78613,0.0898 -1.53858,0.20215 -0.75244,0.1123 -1.53857,0.1123 -0.17969,0 -0.48291,-0.0225 -0.30322,-0.0225 -0.57275,-0.11231 -0.26954,-0.0898 -0.46045,-0.24707 -0.19092,-0.15722 -0.19092,-0.44921 z m 17.1752,7.36718 q 0,-0.44922 0.58399,-0.57275 0.58398,-0.12354 0.89844,-0.12354 1.97656,0 3.88574,-0.33691 1.90918,-0.33691 3.84082,-0.33691 0.17969,0 0.59521,0.0225 0.41553,0.0225 0.78614,0.0898 0.3706,0.0674 0.66259,0.22461 0.292,0.15723 0.292,0.47168 0,0.56152 -0.26954,1.61719 -0.26953,1.05566 -0.72998,2.36963 -0.46044,1.31396 -1.01074,2.78515 -0.55029,1.47119 -1.10058,2.80762 -0.5503,1.33642 -1.03321,2.41455 -0.48291,1.07812 -0.7749,1.68457 0.74121,0.13477 1.81934,0.22461 1.07812,0.0898 2.04394,0.17969 0.96582,0.0898 1.61719,0.30322 0.65137,0.21338 0.60644,0.52783 -0.0898,0.5166 -0.92089,0.8086 -0.8086,0.29199 -2.02149,0.40429 -0.74121,0.0674 -1.57226,0.0674 -0.49414,0 -0.98828,-0.0225 -1.34766,-0.0674 -2.52686,-0.22461 -1.1792,-0.15722 -1.96533,-0.43798 -0.78614,-0.28077 -0.78614,-0.59522 0,-0.13476 0.39307,-1.10058 0.39307,-0.96582 0.96582,-2.34717 0.57276,-1.38135 1.26904,-3.00977 0.69629,-1.62842 1.33643,-3.1333 0.64014,-1.50488 1.12305,-2.67285 0.48291,-1.16797 0.66259,-1.61719 -1.32519,0.0898 -2.68408,0.22461 -1.35888,0.13477 -2.68408,0.13477 -0.17969,0 -0.57275,-0.0225 -0.39307,-0.0225 -0.76368,-0.11231 -0.3706,-0.0898 -0.67382,-0.2583 -0.30323,-0.16846 -0.30323,-0.43799 z"
     id="path58" />
  <path
     fill="#"
     d=""
     id="path60" />
</svg>
